<?xml version="1.0" standalone="no"?>
<!DOCTYPE svg PUBLIC "-//W3C//DTD SVG 20010904//EN"
 "http://www.w3.org/TR/2001/REC-SVG-20010904/DTD/svg10.dtd">
<svg version="1.0" xmlns="http://www.w3.org/2000/svg"
 width="619.000000pt" height="619.000000pt" viewBox="0 0 619.000000 619.000000"
 preserveAspectRatio="xMidYMid meet">
<metadata>
Created by potrace 1.11, written by Peter Selinger 2001-2013
</metadata>
<g transform="translate(0.000000,619.000000) scale(0.100000,-0.100000)"
fill="#000000" stroke="none">
<path d="M4513 3366 c-206 -39 -340 -111 -470 -250 -152 -162 -216 -385 -184
-631 25 -187 94 -330 220 -455 121 -120 273 -210 556 -329 305 -129 404 -192
450 -286 73 -149 2 -312 -164 -376 -68 -26 -244 -37 -336 -20 -142 26 -299
136 -390 274 -21 31 -42 57 -48 57 -14 0 -467 -262 -467 -270 0 -3 22 -42 49
-85 189 -305 518 -482 936 -502 507 -24 891 194 999 567 63 220 34 489 -71
670 -51 87 -179 215 -284 283 -103 67 -275 154 -459 232 -347 147 -420 212
-420 375 0 163 98 250 281 250 140 0 247 -63 330 -192 18 -27 37 -47 43 -45
27 11 422 269 430 281 11 17 -19 66 -101 168 -102 126 -260 225 -428 268 -105
28 -365 36 -472 16z"/>
<path d="M2780 2320 c0 -724 -3 -1045 -11 -1082 -16 -73 -53 -142 -91 -171
-58 -42 -97 -52 -203 -52 -88 1 -106 4 -151 27 -61 32 -136 112 -184 196 -19
34 -39 62 -45 62 -18 0 -465 -273 -465 -284 0 -29 96 -171 165 -244 124 -132
256 -208 442 -254 119 -30 387 -32 507 -4 291 67 484 238 569 501 46 142 47
167 47 1281 l0 1054 -290 0 -290 0 0 -1030z"/>
</g>
</svg>
